<mxfile host="app.diagrams.net" modified="2023-06-12T15:40:05.085Z" agent="Mozilla/5.0 (Windows NT 10.0; Win64; x64) AppleWebKit/537.36 (KHTML, like Gecko) Chrome/112.0.0.0 YaBrowser/23.5.2.625 Yowser/2.5 Safari/537.36" etag="K8xbPPwADYblXs1idrHT" version="21.3.8" type="device">
  <diagram name="Страница 1" id="iQBDpPzRfKCYsDEYA82G">
    <mxGraphModel dx="1002" dy="575" grid="1" gridSize="10" guides="1" tooltips="1" connect="1" arrows="1" fold="1" page="1" pageScale="1" pageWidth="827" pageHeight="1169" math="0" shadow="0">
      <root>
        <mxCell id="0" />
        <mxCell id="1" parent="0" />
        <mxCell id="DJI0rC-xTX2Y5thRxGUj-25" style="edgeStyle=orthogonalEdgeStyle;rounded=0;orthogonalLoop=1;jettySize=auto;html=1;entryX=0.5;entryY=0;entryDx=0;entryDy=0;endArrow=none;endFill=0;" parent="1" source="DJI0rC-xTX2Y5thRxGUj-1" target="DJI0rC-xTX2Y5thRxGUj-2" edge="1">
          <mxGeometry relative="1" as="geometry">
            <Array as="points">
              <mxPoint x="450" y="80" />
              <mxPoint x="320" y="80" />
            </Array>
          </mxGeometry>
        </mxCell>
        <mxCell id="DJI0rC-xTX2Y5thRxGUj-26" style="edgeStyle=orthogonalEdgeStyle;rounded=0;orthogonalLoop=1;jettySize=auto;html=1;entryX=0.5;entryY=0;entryDx=0;entryDy=0;endArrow=none;endFill=0;" parent="1" source="DJI0rC-xTX2Y5thRxGUj-1" target="DJI0rC-xTX2Y5thRxGUj-3" edge="1">
          <mxGeometry relative="1" as="geometry">
            <Array as="points">
              <mxPoint x="450" y="80" />
              <mxPoint x="550" y="80" />
            </Array>
          </mxGeometry>
        </mxCell>
        <mxCell id="DJI0rC-xTX2Y5thRxGUj-1" value="Трудовые ресурсы" style="rounded=0;whiteSpace=wrap;html=1;" parent="1" vertex="1">
          <mxGeometry x="390" y="20" width="120" height="30" as="geometry" />
        </mxCell>
        <mxCell id="DJI0rC-xTX2Y5thRxGUj-21" style="edgeStyle=orthogonalEdgeStyle;rounded=0;orthogonalLoop=1;jettySize=auto;html=1;entryX=0;entryY=0.5;entryDx=0;entryDy=0;endArrow=none;endFill=0;" parent="1" source="DJI0rC-xTX2Y5thRxGUj-2" target="DJI0rC-xTX2Y5thRxGUj-7" edge="1">
          <mxGeometry relative="1" as="geometry">
            <Array as="points">
              <mxPoint x="290" y="305" />
            </Array>
          </mxGeometry>
        </mxCell>
        <mxCell id="DJI0rC-xTX2Y5thRxGUj-22" style="edgeStyle=orthogonalEdgeStyle;rounded=0;orthogonalLoop=1;jettySize=auto;html=1;entryX=0;entryY=0.5;entryDx=0;entryDy=0;endArrow=none;endFill=0;" parent="1" source="DJI0rC-xTX2Y5thRxGUj-2" target="DJI0rC-xTX2Y5thRxGUj-6" edge="1">
          <mxGeometry relative="1" as="geometry">
            <Array as="points">
              <mxPoint x="290" y="245" />
            </Array>
          </mxGeometry>
        </mxCell>
        <mxCell id="DJI0rC-xTX2Y5thRxGUj-23" style="edgeStyle=orthogonalEdgeStyle;rounded=0;orthogonalLoop=1;jettySize=auto;html=1;entryX=0;entryY=0.75;entryDx=0;entryDy=0;endArrow=none;endFill=0;" parent="1" source="DJI0rC-xTX2Y5thRxGUj-2" target="DJI0rC-xTX2Y5thRxGUj-5" edge="1">
          <mxGeometry relative="1" as="geometry">
            <Array as="points">
              <mxPoint x="290" y="193" />
            </Array>
          </mxGeometry>
        </mxCell>
        <mxCell id="DJI0rC-xTX2Y5thRxGUj-2" value="Группа тех. обеспечения" style="rounded=0;whiteSpace=wrap;html=1;" parent="1" vertex="1">
          <mxGeometry x="260" y="100" width="120" height="30" as="geometry" />
        </mxCell>
        <mxCell id="DJI0rC-xTX2Y5thRxGUj-27" style="edgeStyle=orthogonalEdgeStyle;rounded=0;orthogonalLoop=1;jettySize=auto;html=1;entryX=0;entryY=0.5;entryDx=0;entryDy=0;endArrow=none;endFill=0;" parent="1" source="DJI0rC-xTX2Y5thRxGUj-3" target="DJI0rC-xTX2Y5thRxGUj-15" edge="1">
          <mxGeometry relative="1" as="geometry">
            <Array as="points">
              <mxPoint x="500" y="475" />
            </Array>
          </mxGeometry>
        </mxCell>
        <mxCell id="DJI0rC-xTX2Y5thRxGUj-28" style="edgeStyle=orthogonalEdgeStyle;rounded=0;orthogonalLoop=1;jettySize=auto;html=1;entryX=0;entryY=0.5;entryDx=0;entryDy=0;endArrow=none;endFill=0;" parent="1" source="DJI0rC-xTX2Y5thRxGUj-3" target="DJI0rC-xTX2Y5thRxGUj-14" edge="1">
          <mxGeometry relative="1" as="geometry">
            <Array as="points">
              <mxPoint x="500" y="415" />
            </Array>
          </mxGeometry>
        </mxCell>
        <mxCell id="DJI0rC-xTX2Y5thRxGUj-29" style="edgeStyle=orthogonalEdgeStyle;rounded=0;orthogonalLoop=1;jettySize=auto;html=1;entryX=0;entryY=0.5;entryDx=0;entryDy=0;endArrow=none;endFill=0;" parent="1" source="DJI0rC-xTX2Y5thRxGUj-3" target="DJI0rC-xTX2Y5thRxGUj-12" edge="1">
          <mxGeometry relative="1" as="geometry">
            <Array as="points">
              <mxPoint x="500" y="355" />
            </Array>
          </mxGeometry>
        </mxCell>
        <mxCell id="DJI0rC-xTX2Y5thRxGUj-30" style="edgeStyle=orthogonalEdgeStyle;rounded=0;orthogonalLoop=1;jettySize=auto;html=1;entryX=0;entryY=0.5;entryDx=0;entryDy=0;endArrow=none;endFill=0;" parent="1" source="DJI0rC-xTX2Y5thRxGUj-3" target="DJI0rC-xTX2Y5thRxGUj-11" edge="1">
          <mxGeometry relative="1" as="geometry">
            <Array as="points">
              <mxPoint x="500" y="300" />
              <mxPoint x="520" y="300" />
            </Array>
          </mxGeometry>
        </mxCell>
        <mxCell id="DJI0rC-xTX2Y5thRxGUj-31" style="edgeStyle=orthogonalEdgeStyle;rounded=0;orthogonalLoop=1;jettySize=auto;html=1;entryX=0;entryY=0.5;entryDx=0;entryDy=0;endArrow=none;endFill=0;" parent="1" source="DJI0rC-xTX2Y5thRxGUj-3" target="DJI0rC-xTX2Y5thRxGUj-10" edge="1">
          <mxGeometry relative="1" as="geometry">
            <Array as="points">
              <mxPoint x="500" y="235" />
            </Array>
          </mxGeometry>
        </mxCell>
        <mxCell id="DJI0rC-xTX2Y5thRxGUj-32" style="edgeStyle=orthogonalEdgeStyle;rounded=0;orthogonalLoop=1;jettySize=auto;html=1;entryX=0;entryY=0.5;entryDx=0;entryDy=0;endArrow=none;endFill=0;" parent="1" source="DJI0rC-xTX2Y5thRxGUj-3" target="DJI0rC-xTX2Y5thRxGUj-9" edge="1">
          <mxGeometry relative="1" as="geometry">
            <Array as="points">
              <mxPoint x="500" y="175" />
            </Array>
          </mxGeometry>
        </mxCell>
        <mxCell id="DJI0rC-xTX2Y5thRxGUj-3" value="Группа менеджмента" style="rounded=0;whiteSpace=wrap;html=1;" parent="1" vertex="1">
          <mxGeometry x="490" y="100" width="120" height="30" as="geometry" />
        </mxCell>
        <mxCell id="DJI0rC-xTX2Y5thRxGUj-5" value="Программист" style="rounded=0;whiteSpace=wrap;html=1;" parent="1" vertex="1">
          <mxGeometry x="310" y="170" width="120" height="30" as="geometry" />
        </mxCell>
        <mxCell id="DJI0rC-xTX2Y5thRxGUj-6" value="Верстальщик" style="rounded=0;whiteSpace=wrap;html=1;" parent="1" vertex="1">
          <mxGeometry x="310" y="230" width="120" height="30" as="geometry" />
        </mxCell>
        <mxCell id="DJI0rC-xTX2Y5thRxGUj-7" value="Инженер" style="rounded=0;whiteSpace=wrap;html=1;" parent="1" vertex="1">
          <mxGeometry x="310" y="290" width="120" height="30" as="geometry" />
        </mxCell>
        <mxCell id="DJI0rC-xTX2Y5thRxGUj-9" value="Эколог" style="rounded=0;whiteSpace=wrap;html=1;" parent="1" vertex="1">
          <mxGeometry x="520" y="160" width="120" height="30" as="geometry" />
        </mxCell>
        <mxCell id="DJI0rC-xTX2Y5thRxGUj-10" value="Аналитик" style="rounded=0;whiteSpace=wrap;html=1;" parent="1" vertex="1">
          <mxGeometry x="520" y="220" width="120" height="30" as="geometry" />
        </mxCell>
        <mxCell id="DJI0rC-xTX2Y5thRxGUj-11" value="Менеджер" style="rounded=0;whiteSpace=wrap;html=1;" parent="1" vertex="1">
          <mxGeometry x="520" y="280" width="120" height="30" as="geometry" />
        </mxCell>
        <mxCell id="DJI0rC-xTX2Y5thRxGUj-12" value="Делопроизводитель" style="rounded=0;whiteSpace=wrap;html=1;" parent="1" vertex="1">
          <mxGeometry x="520" y="340" width="120" height="30" as="geometry" />
        </mxCell>
        <mxCell id="DJI0rC-xTX2Y5thRxGUj-14" value="Бухгалтер" style="rounded=0;whiteSpace=wrap;html=1;" parent="1" vertex="1">
          <mxGeometry x="520" y="400" width="120" height="30" as="geometry" />
        </mxCell>
        <mxCell id="DJI0rC-xTX2Y5thRxGUj-15" value="Руководитель проекта" style="rounded=0;whiteSpace=wrap;html=1;" parent="1" vertex="1">
          <mxGeometry x="520" y="460" width="120" height="30" as="geometry" />
        </mxCell>
        <mxCell id="DJI0rC-xTX2Y5thRxGUj-42" style="edgeStyle=orthogonalEdgeStyle;rounded=0;orthogonalLoop=1;jettySize=auto;html=1;entryX=0.5;entryY=0;entryDx=0;entryDy=0;endArrow=none;endFill=0;" parent="1" source="DJI0rC-xTX2Y5thRxGUj-33" target="DJI0rC-xTX2Y5thRxGUj-34" edge="1">
          <mxGeometry relative="1" as="geometry">
            <Array as="points">
              <mxPoint x="1260" y="60" />
              <mxPoint x="1100" y="60" />
            </Array>
          </mxGeometry>
        </mxCell>
        <mxCell id="DJI0rC-xTX2Y5thRxGUj-43" style="edgeStyle=orthogonalEdgeStyle;rounded=0;orthogonalLoop=1;jettySize=auto;html=1;entryX=0.5;entryY=0;entryDx=0;entryDy=0;endArrow=none;endFill=0;" parent="1" source="DJI0rC-xTX2Y5thRxGUj-33" edge="1">
          <mxGeometry relative="1" as="geometry">
            <mxPoint x="1260" y="85" as="targetPoint" />
          </mxGeometry>
        </mxCell>
        <mxCell id="DJI0rC-xTX2Y5thRxGUj-45" style="edgeStyle=orthogonalEdgeStyle;rounded=0;orthogonalLoop=1;jettySize=auto;html=1;entryX=0.583;entryY=0.086;entryDx=0;entryDy=0;entryPerimeter=0;endArrow=none;endFill=0;" parent="1" source="DJI0rC-xTX2Y5thRxGUj-33" target="DJI0rC-xTX2Y5thRxGUj-36" edge="1">
          <mxGeometry relative="1" as="geometry">
            <Array as="points">
              <mxPoint x="1260" y="60" />
              <mxPoint x="1450" y="60" />
            </Array>
          </mxGeometry>
        </mxCell>
        <mxCell id="6GFQA-sjf8FYAKXJCTTK-6" style="edgeStyle=orthogonalEdgeStyle;rounded=0;orthogonalLoop=1;jettySize=auto;html=1;exitX=0.5;exitY=1;exitDx=0;exitDy=0;entryX=0;entryY=0.5;entryDx=0;entryDy=0;endArrow=none;endFill=0;" edge="1" parent="1" source="DJI0rC-xTX2Y5thRxGUj-33" target="DJI0rC-xTX2Y5thRxGUj-38">
          <mxGeometry relative="1" as="geometry">
            <Array as="points">
              <mxPoint x="1260" y="60" />
              <mxPoint x="1180" y="60" />
              <mxPoint x="1180" y="158" />
            </Array>
          </mxGeometry>
        </mxCell>
        <mxCell id="6GFQA-sjf8FYAKXJCTTK-7" style="edgeStyle=orthogonalEdgeStyle;rounded=0;orthogonalLoop=1;jettySize=auto;html=1;exitX=0.5;exitY=1;exitDx=0;exitDy=0;entryX=1;entryY=0.5;entryDx=0;entryDy=0;endArrow=none;endFill=0;" edge="1" parent="1" source="DJI0rC-xTX2Y5thRxGUj-33" target="DJI0rC-xTX2Y5thRxGUj-40">
          <mxGeometry relative="1" as="geometry">
            <Array as="points">
              <mxPoint x="1260" y="60" />
              <mxPoint x="1180" y="60" />
              <mxPoint x="1180" y="158" />
            </Array>
          </mxGeometry>
        </mxCell>
        <mxCell id="6GFQA-sjf8FYAKXJCTTK-8" style="edgeStyle=orthogonalEdgeStyle;rounded=0;orthogonalLoop=1;jettySize=auto;html=1;exitX=0.5;exitY=1;exitDx=0;exitDy=0;entryX=1;entryY=0.5;entryDx=0;entryDy=0;endArrow=none;endFill=0;" edge="1" parent="1" source="DJI0rC-xTX2Y5thRxGUj-33" target="DJI0rC-xTX2Y5thRxGUj-38">
          <mxGeometry relative="1" as="geometry">
            <Array as="points">
              <mxPoint x="1260" y="60" />
              <mxPoint x="1350" y="60" />
              <mxPoint x="1350" y="158" />
            </Array>
          </mxGeometry>
        </mxCell>
        <mxCell id="6GFQA-sjf8FYAKXJCTTK-9" style="edgeStyle=orthogonalEdgeStyle;rounded=0;orthogonalLoop=1;jettySize=auto;html=1;exitX=0.5;exitY=1;exitDx=0;exitDy=0;entryX=0;entryY=0.5;entryDx=0;entryDy=0;endArrow=none;endFill=0;" edge="1" parent="1" source="DJI0rC-xTX2Y5thRxGUj-33" target="DJI0rC-xTX2Y5thRxGUj-44">
          <mxGeometry relative="1" as="geometry">
            <Array as="points">
              <mxPoint x="1260" y="60" />
              <mxPoint x="1350" y="60" />
              <mxPoint x="1350" y="158" />
            </Array>
          </mxGeometry>
        </mxCell>
        <mxCell id="DJI0rC-xTX2Y5thRxGUj-33" value="Материальные ресурсы" style="rounded=0;whiteSpace=wrap;html=1;" parent="1" vertex="1">
          <mxGeometry x="1200" width="120" height="30" as="geometry" />
        </mxCell>
        <mxCell id="DJI0rC-xTX2Y5thRxGUj-34" value="Расходные материалы" style="rounded=0;whiteSpace=wrap;html=1;" parent="1" vertex="1">
          <mxGeometry x="1040" y="85" width="120" height="35" as="geometry" />
        </mxCell>
        <mxCell id="DJI0rC-xTX2Y5thRxGUj-36" value="Световое оборудование" style="rounded=0;whiteSpace=wrap;html=1;" parent="1" vertex="1">
          <mxGeometry x="1380" y="85" width="120" height="35" as="geometry" />
        </mxCell>
        <mxCell id="DJI0rC-xTX2Y5thRxGUj-37" value="Землеснаряды" style="rounded=0;whiteSpace=wrap;html=1;" parent="1" vertex="1">
          <mxGeometry x="1121" y="210" width="120" height="35" as="geometry" />
        </mxCell>
        <mxCell id="6GFQA-sjf8FYAKXJCTTK-13" style="edgeStyle=orthogonalEdgeStyle;rounded=0;orthogonalLoop=1;jettySize=auto;html=1;exitX=0.5;exitY=1;exitDx=0;exitDy=0;entryX=0.5;entryY=0;entryDx=0;entryDy=0;endArrow=none;endFill=0;" edge="1" parent="1" source="DJI0rC-xTX2Y5thRxGUj-38" target="6GFQA-sjf8FYAKXJCTTK-3">
          <mxGeometry relative="1" as="geometry">
            <Array as="points">
              <mxPoint x="1264" y="195" />
              <mxPoint x="1031" y="195" />
            </Array>
          </mxGeometry>
        </mxCell>
        <mxCell id="6GFQA-sjf8FYAKXJCTTK-14" style="edgeStyle=orthogonalEdgeStyle;rounded=0;orthogonalLoop=1;jettySize=auto;html=1;exitX=0.5;exitY=1;exitDx=0;exitDy=0;endArrow=none;endFill=0;" edge="1" parent="1" source="DJI0rC-xTX2Y5thRxGUj-38" target="DJI0rC-xTX2Y5thRxGUj-37">
          <mxGeometry relative="1" as="geometry">
            <Array as="points">
              <mxPoint x="1264" y="195" />
              <mxPoint x="1181" y="195" />
            </Array>
          </mxGeometry>
        </mxCell>
        <mxCell id="6GFQA-sjf8FYAKXJCTTK-15" style="edgeStyle=orthogonalEdgeStyle;rounded=0;orthogonalLoop=1;jettySize=auto;html=1;exitX=0.5;exitY=1;exitDx=0;exitDy=0;entryX=0.5;entryY=0;entryDx=0;entryDy=0;endArrow=none;endFill=0;" edge="1" parent="1" source="DJI0rC-xTX2Y5thRxGUj-38" target="DJI0rC-xTX2Y5thRxGUj-39">
          <mxGeometry relative="1" as="geometry" />
        </mxCell>
        <mxCell id="6GFQA-sjf8FYAKXJCTTK-16" style="edgeStyle=orthogonalEdgeStyle;rounded=0;orthogonalLoop=1;jettySize=auto;html=1;exitX=0.5;exitY=1;exitDx=0;exitDy=0;entryX=0.5;entryY=0;entryDx=0;entryDy=0;endArrow=none;endFill=0;" edge="1" parent="1" source="DJI0rC-xTX2Y5thRxGUj-38" target="6GFQA-sjf8FYAKXJCTTK-1">
          <mxGeometry relative="1" as="geometry">
            <Array as="points">
              <mxPoint x="1264" y="195" />
              <mxPoint x="1490" y="195" />
            </Array>
          </mxGeometry>
        </mxCell>
        <mxCell id="DJI0rC-xTX2Y5thRxGUj-38" value="Рабочее оборудование" style="rounded=0;whiteSpace=wrap;html=1;" parent="1" vertex="1">
          <mxGeometry x="1204" y="140" width="120" height="35" as="geometry" />
        </mxCell>
        <mxCell id="DJI0rC-xTX2Y5thRxGUj-39" value="Плавучие экскаваторы" style="rounded=0;whiteSpace=wrap;html=1;" parent="1" vertex="1">
          <mxGeometry x="1280" y="210" width="120" height="35" as="geometry" />
        </mxCell>
        <mxCell id="DJI0rC-xTX2Y5thRxGUj-40" value="Строительные материалы" style="rounded=0;whiteSpace=wrap;html=1;" parent="1" vertex="1">
          <mxGeometry x="1040" y="140" width="120" height="35" as="geometry" />
        </mxCell>
        <mxCell id="DJI0rC-xTX2Y5thRxGUj-41" value="Мебель" style="rounded=0;whiteSpace=wrap;html=1;" parent="1" vertex="1">
          <mxGeometry x="1200" y="80" width="120" height="35" as="geometry" />
        </mxCell>
        <mxCell id="DJI0rC-xTX2Y5thRxGUj-44" value="Лабораторное оборудование" style="rounded=0;whiteSpace=wrap;html=1;" parent="1" vertex="1">
          <mxGeometry x="1384" y="140" width="120" height="35" as="geometry" />
        </mxCell>
        <mxCell id="6GFQA-sjf8FYAKXJCTTK-1" value="Геотубы" style="rounded=0;whiteSpace=wrap;html=1;" vertex="1" parent="1">
          <mxGeometry x="1430" y="210" width="120" height="35" as="geometry" />
        </mxCell>
        <mxCell id="6GFQA-sjf8FYAKXJCTTK-3" value="Землесосы" style="rounded=0;whiteSpace=wrap;html=1;" vertex="1" parent="1">
          <mxGeometry x="971" y="210" width="120" height="35" as="geometry" />
        </mxCell>
      </root>
    </mxGraphModel>
  </diagram>
</mxfile>
